<?xml version="1.0" encoding="UTF-8"?>
<svg id="Capa_1" data-name="Capa 1" xmlns="http://www.w3.org/2000/svg" viewBox="0 0 361.17 360.91">
  <defs>
    <style>
      .cls-1 {
        fill: #7e2448;
        stroke-width: 0px;
      }
    </style>
  </defs>
  <path class="cls-1" d="M180.59,360.9C81.93,362.13-.11,279.02,0,180.33.11,82.18,81.94-.51,181.59,0c98.05.5,180.2,82.4,179.58,181.83-.61,97.5-81.84,180.2-180.58,179.07ZM115.13,177.75c6.05.99,11.04,3.25,16.62,3.73,5.49.47,10.88.62,16.41.08,39.39-3.84,63.98-34.17,59.29-73.48-4.14-34.71-36.24-56.76-70.28-51.64-23.11,3.48-41.45,15.91-56.33,33.5-26.84,31.73-38.58,68.45-32.43,109.55,7.18,47.99,33.82,82.43,77.75,103.14,19.98,9.42,41.28,12.7,63.26,11.47,6.95-.39,7-.75,3.73-6.19-23.57-39.29-47.15-78.56-70.72-117.84-2.45-4.09-4.87-8.21-7.3-12.31ZM241.21,62.92c1.23,2.13,2.46,4.27,3.69,6.4,19.6,34.04,16.66,81.31-7.28,112.27-11.01,14.24-25.1,24.73-41.63,31.83-3.14,1.35-4.07,2.37-2.02,5.69,15.37,24.95,30.64,49.97,45.7,75.11,2.44,4.07,4.53,4.33,8.24,1.97,47.17-30.09,70.12-72.75,65.46-128.84-3.22-38.78-21.76-69.7-52.34-93.47-5.88-4.57-12.05-8.82-19.81-10.96Z"/>
</svg>