<?xml version="1.0" encoding="UTF-8"?>
<svg id="Capa_1" data-name="Capa 1" xmlns="http://www.w3.org/2000/svg" viewBox="0 0 61.64 61.6">
  <defs>
    <style>
      .cls-1 {
        fill: #fef4f2;
        stroke-width: 0px;
      }
    </style>
  </defs>
  <path class="cls-1" d="M30.82,61.59C13.98,61.8-.02,47.62,0,30.78.02,14.02,13.98-.09,30.99,0c16.73.09,30.76,14.06,30.65,31.03-.1,16.64-13.97,30.76-30.82,30.56ZM19.65,30.34c1.03.17,1.88.55,2.84.64.94.08,1.86.11,2.8.01,6.72-.65,10.92-5.83,10.12-12.54-.71-5.92-6.19-9.69-12-8.81-3.94.59-7.07,2.71-9.61,5.72-4.58,5.41-6.58,11.68-5.53,18.7,1.23,8.19,5.77,14.07,13.27,17.6,3.41,1.61,7.05,2.17,10.8,1.96,1.19-.07,1.19-.13.64-1.06-4.02-6.7-8.05-13.41-12.07-20.11-.42-.7-.83-1.4-1.25-2.1ZM41.17,10.74c.21.36.42.73.63,1.09,3.35,5.81,2.84,13.88-1.24,19.16-1.88,2.43-4.28,4.22-7.1,5.43-.54.23-.69.41-.35.97,2.62,4.26,5.23,8.53,7.8,12.82.42.7.77.74,1.41.34,8.05-5.14,11.97-12.42,11.17-21.99-.55-6.62-3.71-11.9-8.93-15.95-1-.78-2.06-1.5-3.38-1.87Z"/>
</svg>